<?xml version="1.0"?>
<!DOCTYPE svg PUBLIC "-//W3C//DTD SVG 1.0//EN" "http://www.w3.org/TR/2001/REC-SVG-20010904/DTD/svg10.dtd">
<svg xmlns="http://www.w3.org/2000/svg" xmlns:xlink="http://www.w3.org/1999/xlink" xmlns:sodipodi="http://sodipodi.sourceforge.net/DTD/sodipodi-0.dtd" xmlns:inkscape="http://www.inkscape.org/namespaces/inkscape" xmlns:realworld="http://www.rw-designer.com/export-svg" width="512px" height="512px">
  <g>
    <path d="M 495.9 166.6C 499.1 175.3 496.4 185 489.5 191.2L 446.2 230.6C 447.3 238.9 447.9 247.4 447.9 256C 447.9 264.6 447.3 273.1 446.2 281.4L 489.5 320.8C 496.4 327 499.1 336.7 495.9 345.4C 491.5 357.3 486.2 368.7 480.1 379.7L 475.4 387.8C 468.8 398.8 461.4 409.2 453.3 419C 447.4 426.2 437.6 428.6 428.8 425.8L 373.1 408.1C 359.7 418.4 344.9 427 329.1 433.5L 316.6 490.6C 314.6 499.7 307.6 506.9 298.4 508.4C 284.6 510.7 270.4 511.9 255.9 511.9C 241.4 511.9 227.2 510.7 213.4 508.4C 204.2 506.9 197.2 499.7 195.2 490.6L 182.7 433.5C 166.9 427 152.1 418.4 138.7 408.1L 83.1 425.9C 74.3 428.7 64.5 426.2 58.6 419.1C 50.5 409.3 43.1 398.9 36.5 387.9L 31.8 379.8C 25.7 368.8 20.4 357.4 16 345.5C 12.8 336.8 15.5 327.1 22.4 320.9L 65.7 281.5C 64.6 273.1 64 264.6 64 256C 64 247.4 64.6 238.9 65.7 230.6L 22.4 191.2C 15.5 185 12.8 175.3 16 166.6C 20.4 154.7 25.7 143.3 31.8 132.3L 36.5 124.2C 43.1 113.2 50.5 102.8 58.6 93C 64.5 85.8 74.3 83.4 83.1 86.2L 138.8 103.9C 152.2 93.6 167 85 182.8 78.5L 195.3 21.4C 197.3 12.3 204.3 5.09998 213.5 3.59998C 227.3 1.2 241.5 0 256 0C 270.5 0 284.7 1.2 298.5 3.5C 307.7 5 314.7 12.2 316.7 21.3L 329.2 78.4C 345 84.9 359.8 93.5 373.2 103.8L 428.9 86.1C 437.7 83.3 447.5 85.8 453.4 92.9C 461.5 102.7 468.9 113.1 475.5 124.1L 480.2 132.2C 486.3 143.2 491.6 154.6 496 166.5C 496 166.5 495.9 166.6 495.9 166.6 z M 256 336C 284.667 336.128 311.21 320.909 325.581 296.104C 339.952 271.299 339.952 240.701 325.581 215.896C 311.21 191.091 284.667 175.872 256 176C 227.333 175.872 200.79 191.091 186.419 215.896C 172.049 240.701 172.049 271.299 186.419 296.104C 200.79 320.909 227.333 336.128 256 336 z" fill="#ffffff" fill-rule="evenodd" />
  </g>
</svg>
