<?xml version="1.0"?>
<!DOCTYPE svg PUBLIC "-//W3C//DTD SVG 1.0//EN" "http://www.w3.org/TR/2001/REC-SVG-20010904/DTD/svg10.dtd">
<svg xmlns="http://www.w3.org/2000/svg" xmlns:xlink="http://www.w3.org/1999/xlink" xmlns:sodipodi="http://sodipodi.sourceforge.net/DTD/sodipodi-0.dtd" xmlns:inkscape="http://www.inkscape.org/namespaces/inkscape" xmlns:realworld="http://www.rw-designer.com/export-svg" width="512px" height="512px">
  <g>
    <path d="M 40 48C 26.7 48 16 58.7 16 72L 16 120C 16 133.3 26.7 144 40 144L 88 144C 101.3 144 112 133.3 112 120L 112 72C 112 58.7 101.3 48 88 48C 88 48 40 48 40 48 z M 192 64C 174.3 64 160 78.3 160 96C 160 113.7 174.3 128 192 128L 480 128C 497.7 128 512 113.7 512 96C 512 78.3 497.7 64 480 64C 480 64 192 64 192 64 z M 192 224C 174.3 224 160 238.3 160 256C 160 273.7 174.3 288 192 288L 480 288C 497.7 288 512 273.7 512 256C 512 238.3 497.7 224 480 224C 480 224 192 224 192 224 z M 192 384C 174.3 384 160 398.3 160 416C 160 433.7 174.3 448 192 448L 480 448C 497.7 448 512 433.7 512 416C 512 398.3 497.7 384 480 384C 480 384 192 384 192 384 z M 16 232L 16 280C 16 293.3 26.7 304 40 304L 88 304C 101.3 304 112 293.3 112 280L 112 232C 112 218.7 101.3 208 88 208L 40 208C 26.7 208 16 218.7 16 232 z M 40 368C 26.7 368 16 378.7 16 392L 16 440C 16 453.3 26.7 464 40 464L 88 464C 101.3 464 112 453.3 112 440L 112 392C 112 378.7 101.3 368 88 368C 88 368 40 368 40 368 z" fill="#ffffff" fill-rule="evenodd" />
  </g>
</svg>
