<?xml version="1.0"?>
<!DOCTYPE svg PUBLIC "-//W3C//DTD SVG 1.0//EN" "http://www.w3.org/TR/2001/REC-SVG-20010904/DTD/svg10.dtd">
<svg xmlns="http://www.w3.org/2000/svg" xmlns:xlink="http://www.w3.org/1999/xlink" xmlns:sodipodi="http://sodipodi.sourceforge.net/DTD/sodipodi-0.dtd" xmlns:inkscape="http://www.inkscape.org/namespaces/inkscape" xmlns:realworld="http://www.rw-designer.com/export-svg" width="512px" height="512px">
  <g>
    <path d="M 362.7 19.3L 314.3 67.7L 444.3 197.7L 492.7 149.3C 517.7 124.3 517.7 83.8 492.7 58.8L 453.3 19.3C 428.3 -5.7 387.8 -5.7 362.8 19.3C 362.8 19.3 362.7 19.3 362.7 19.3 z M 291.8 90.3L 58.6 323.5C 48.2 333.9 40.6 346.8 36.4 360.9L 1 481.2C -1.5 489.7 0.8 498.8 7 505C 13.2 511.2 22.3 513.5 30.7 511.1L 151 475.7C 165.1 471.5 178 463.9 188.4 453.5L 421.7 220.3L 291.7 90.3C 291.7 90.3 291.8 90.3 291.8 90.3 z" fill="#ffffff" fill-rule="evenodd" />
  </g>
</svg>
