<?xml version="1.0"?>
<!DOCTYPE svg PUBLIC "-//W3C//DTD SVG 1.0//EN" "http://www.w3.org/TR/2001/REC-SVG-20010904/DTD/svg10.dtd">
<svg xmlns="http://www.w3.org/2000/svg" xmlns:xlink="http://www.w3.org/1999/xlink" xmlns:sodipodi="http://sodipodi.sourceforge.net/DTD/sodipodi-0.dtd" xmlns:inkscape="http://www.inkscape.org/namespaces/inkscape" xmlns:realworld="http://www.rw-designer.com/export-svg" width="512px" height="512px">
  <g>
    <path d="M 361.5 1.2C 366.5 3.3 370.1 7.8 371.1 13.1L 391 121L 498.9 140.8C 504.2 141.8 508.7 145.4 510.8 150.4C 512.9 155.4 512.3 161.1 509.2 165.6L 446.9 256L 509.2 346.3C 512.3 350.8 512.9 356.5 510.8 361.5C 508.7 366.5 504.2 370.1 498.9 371.1L 391 391L 371.1 498.9C 370.1 504.2 366.5 508.7 361.5 510.8C 356.5 512.9 350.8 512.3 346.3 509.2L 256 446.9L 165.7 509.2C 161.2 512.3 155.5 512.9 150.5 510.8C 145.5 508.7 141.9 504.2 140.9 498.9L 121 391L 13.1 371.1C 7.8 370.1 3.3 366.5 1.2 361.5C -0.9 356.5 -0.3 350.8 2.8 346.3L 65.1 256L 2.8 165.7C -0.3 161.2 -0.9 155.5 1.2 150.5C 3.3 145.5 7.8 141.9 13.1 140.9L 121 121L 140.9 13.1C 141.9 7.8 145.5 3.3 150.5 1.2C 155.5 -0.9 161.2 -0.3 165.7 2.8L 256 65.1L 346.3 2.8C 350.8 -0.3 356.5 -0.9 361.5 1.2C 361.5 1.2 361.5 1.2 361.5 1.2 z M 160 256C 159.846 221.6 178.11 189.747 207.876 172.503C 237.642 155.259 274.358 155.259 304.124 172.503C 333.89 189.747 352.154 221.6 352 256C 352.154 290.4 333.89 322.253 304.124 339.497C 274.358 356.742 237.642 356.742 207.876 339.497C 178.11 322.253 159.846 290.4 160 256 z M 384 256C 384.205 210.133 359.854 167.663 320.166 144.67C 280.478 121.677 231.522 121.677 191.834 144.67C 152.146 167.663 127.795 210.133 128 256C 127.795 301.867 152.146 344.337 191.834 367.33C 231.522 390.323 280.478 390.323 320.166 367.33C 359.854 344.337 384.205 301.867 384 256 z" fill="#ffffff" fill-rule="evenodd" />
  </g>
</svg>
